<?xml version="1.0" encoding="UTF-8" standalone="no"?>
<!DOCTYPE svg PUBLIC "-//W3C//DTD SVG 1.1//EN"
 "http://www.w3.org/Graphics/SVG/1.1/DTD/svg11.dtd">
<!-- Generated by graphviz version 2.40.1 (20161225.0304)
 -->
<!-- Title: dependencies Pages: 1 -->
<svg width="735pt" height="284pt"
 viewBox="0.00 0.00 735.00 284.00" xmlns="http://www.w3.org/2000/svg" xmlns:xlink="http://www.w3.org/1999/xlink">
<g id="graph0" class="graph" transform="scale(1 1) rotate(0) translate(4 280)">
<title>dependencies</title>
<polygon fill="#ffffff" stroke="transparent" points="-4,4 -4,-280 731,-280 731,4 -4,4"/>
<text text-anchor="start" x="342.5091" y="-42.4" font-family="sans-serif" font-weight="bold" font-size="14.00" fill="#000000">Legend</text>
<polygon fill="#ffffb3" stroke="transparent" points="129.5,-10 129.5,-30 149.5,-30 149.5,-10 129.5,-10"/>
<text text-anchor="start" x="153.129" y="-15.4" font-family="sans-serif" font-size="14.00" fill="#000000"> &#160;Declarations</text>
<polygon fill="#8dd3c7" stroke="transparent" points="242.5,-10 242.5,-30 262.5,-30 262.5,-10 242.5,-10"/>
<text text-anchor="start" x="266.2251" y="-15.4" font-family="sans-serif" font-size="14.00" fill="#000000"> &#160;Module</text>
<polygon fill="#80b1d3" stroke="transparent" points="328.5,-10 328.5,-30 348.5,-30 348.5,-10 328.5,-10"/>
<text text-anchor="start" x="352.2812" y="-15.4" font-family="sans-serif" font-size="14.00" fill="#000000"> &#160;Bootstrap</text>
<polygon fill="#fdb462" stroke="transparent" points="425.5,-10 425.5,-30 445.5,-30 445.5,-10 425.5,-10"/>
<text text-anchor="start" x="449.1732" y="-15.4" font-family="sans-serif" font-size="14.00" fill="#000000"> &#160;Providers</text>
<polygon fill="#fb8072" stroke="transparent" points="521.5,-10 521.5,-30 541.5,-30 541.5,-10 521.5,-10"/>
<text text-anchor="start" x="545.2258" y="-15.4" font-family="sans-serif" font-size="14.00" fill="#000000"> &#160;Exports</text>
<g id="clust1" class="cluster">
<title>cluster_ChuckNorrisModule</title>
<polygon fill="none" stroke="#000000" stroke-dasharray="1,5" points="8,-70 8,-268 719,-268 719,-70 8,-70"/>
</g>
<g id="clust2" class="cluster">
<title>cluster_ChuckNorrisModule_declarations</title>
<polygon fill="none" stroke="#000000" points="220,-78 220,-130 711,-130 711,-78 220,-78"/>
</g>
<g id="clust7" class="cluster">
<title>cluster_ChuckNorrisModule_exports</title>
<polygon fill="none" stroke="#000000" points="266,-208 266,-260 466,-260 466,-208 266,-208"/>
</g>
<g id="clust9" class="cluster">
<title>cluster_ChuckNorrisModule_providers</title>
<polygon fill="none" stroke="#000000" points="16,-78 16,-130 212,-130 212,-78 16,-78"/>
</g>
<!-- ChuckNorrisPageComponent -->
<g id="node1" class="node">
<title>ChuckNorrisPageComponent</title>
<polygon fill="#ffffb3" stroke="#000000" points="703.3585,-122 522.6415,-122 522.6415,-86 703.3585,-86 703.3585,-122"/>
<text text-anchor="middle" x="613" y="-99.8" font-family="Times,serif" font-size="14.00" fill="#000000">ChuckNorrisPageComponent</text>
</g>
<!-- ChuckNorrisModule -->
<g id="node4" class="node">
<title>ChuckNorrisModule</title>
<polygon fill="#8dd3c7" stroke="#000000" points="431.8641,-187 428.8641,-191 407.8641,-191 404.8641,-187 300.1359,-187 300.1359,-151 431.8641,-151 431.8641,-187"/>
<text text-anchor="middle" x="366" y="-164.8" font-family="Times,serif" font-size="14.00" fill="#000000">ChuckNorrisModule</text>
</g>
<!-- ChuckNorrisPageComponent&#45;&gt;ChuckNorrisModule -->
<g id="edge1" class="edge">
<title>ChuckNorrisPageComponent&#45;&gt;ChuckNorrisModule</title>
<path fill="none" stroke="#000000" d="M613,-122.1061C613,-141.3391 613,-169 613,-169 613,-169 441.867,-169 441.867,-169"/>
<polygon fill="#000000" stroke="#000000" points="441.867,-165.5001 431.867,-169 441.867,-172.5001 441.867,-165.5001"/>
</g>
<!-- JokeListComponent -->
<g id="node2" class="node">
<title>JokeListComponent</title>
<polygon fill="#ffffb3" stroke="#000000" points="504.2702,-122 375.7298,-122 375.7298,-86 504.2702,-86 504.2702,-122"/>
<text text-anchor="middle" x="440" y="-99.8" font-family="Times,serif" font-size="14.00" fill="#000000">JokeListComponent</text>
</g>
<!-- JokeListComponent&#45;&gt;ChuckNorrisModule -->
<g id="edge2" class="edge">
<title>JokeListComponent&#45;&gt;ChuckNorrisModule</title>
<path fill="none" stroke="#000000" d="M403.7735,-122.1061C403.7735,-122.1061 403.7735,-140.991 403.7735,-140.991"/>
<polygon fill="#000000" stroke="#000000" points="400.2736,-140.9909 403.7735,-150.991 407.2736,-140.991 400.2736,-140.9909"/>
</g>
<!-- JokeTileComponent -->
<g id="node3" class="node">
<title>JokeTileComponent</title>
<polygon fill="#ffffb3" stroke="#000000" points="357.5408,-122 228.4592,-122 228.4592,-86 357.5408,-86 357.5408,-122"/>
<text text-anchor="middle" x="293" y="-99.8" font-family="Times,serif" font-size="14.00" fill="#000000">JokeTileComponent</text>
</g>
<!-- JokeTileComponent&#45;&gt;ChuckNorrisModule -->
<g id="edge3" class="edge">
<title>JokeTileComponent&#45;&gt;ChuckNorrisModule</title>
<path fill="none" stroke="#000000" d="M328.919,-122.1061C328.919,-122.1061 328.919,-140.991 328.919,-140.991"/>
<polygon fill="#000000" stroke="#000000" points="325.4191,-140.9909 328.919,-150.991 332.4191,-140.991 325.4191,-140.9909"/>
</g>
<!-- ChuckNorrisPageComponent  -->
<g id="node5" class="node">
<title>ChuckNorrisPageComponent </title>
<polygon fill="#fb8072" stroke="#000000" points="458.3587,-252 273.6413,-252 273.6413,-216 458.3587,-216 458.3587,-252"/>
<text text-anchor="middle" x="366" y="-229.8" font-family="Times,serif" font-size="14.00" fill="#000000">ChuckNorrisPageComponent </text>
</g>
<!-- ChuckNorrisModule&#45;&gt;ChuckNorrisPageComponent  -->
<g id="edge4" class="edge">
<title>ChuckNorrisModule&#45;&gt;ChuckNorrisPageComponent </title>
<path fill="none" stroke="#000000" stroke-dasharray="5,2" d="M366,-187.1061C366,-187.1061 366,-205.991 366,-205.991"/>
<polygon fill="#000000" stroke="#000000" points="362.5001,-205.9909 366,-215.991 369.5001,-205.991 362.5001,-205.9909"/>
</g>
<!-- ChuckNorrisService -->
<g id="node6" class="node">
<title>ChuckNorrisService</title>
<ellipse fill="#fdb462" stroke="#000000" cx="114" cy="-104" rx="89.746" ry="18"/>
<text text-anchor="middle" x="114" y="-99.8" font-family="Times,serif" font-size="14.00" fill="#000000">ChuckNorrisService</text>
</g>
<!-- ChuckNorrisService&#45;&gt;ChuckNorrisModule -->
<g id="edge5" class="edge">
<title>ChuckNorrisService&#45;&gt;ChuckNorrisModule</title>
<path fill="none" stroke="#000000" d="M114,-122.1061C114,-141.3391 114,-169 114,-169 114,-169 290.1191,-169 290.1191,-169"/>
<polygon fill="#000000" stroke="#000000" points="290.1192,-172.5001 300.1191,-169 290.1191,-165.5001 290.1192,-172.5001"/>
</g>
</g>
</svg>
