<?xml version="1.0" encoding="UTF-8" standalone="no"?>
<!DOCTYPE svg PUBLIC "-//W3C//DTD SVG 1.1//EN"
 "http://www.w3.org/Graphics/SVG/1.1/DTD/svg11.dtd">
<!-- Generated by graphviz version 2.40.1 (20161225.0304)
 -->
<!-- Title: dependencies Pages: 1 -->
<svg width="504pt" height="284pt"
 viewBox="0.00 0.00 504.00 284.00" xmlns="http://www.w3.org/2000/svg" xmlns:xlink="http://www.w3.org/1999/xlink">
<g id="graph0" class="graph" transform="scale(1 1) rotate(0) translate(4 280)">
<title>dependencies</title>
<polygon fill="#ffffff" stroke="transparent" points="-4,4 -4,-280 500,-280 500,4 -4,4"/>
<text text-anchor="start" x="227.0091" y="-42.4" font-family="sans-serif" font-weight="bold" font-size="14.00" fill="#000000">Legend</text>
<polygon fill="#ffffb3" stroke="transparent" points="14,-10 14,-30 34,-30 34,-10 14,-10"/>
<text text-anchor="start" x="37.629" y="-15.4" font-family="sans-serif" font-size="14.00" fill="#000000"> &#160;Declarations</text>
<polygon fill="#8dd3c7" stroke="transparent" points="127,-10 127,-30 147,-30 147,-10 127,-10"/>
<text text-anchor="start" x="150.7251" y="-15.4" font-family="sans-serif" font-size="14.00" fill="#000000"> &#160;Module</text>
<polygon fill="#80b1d3" stroke="transparent" points="213,-10 213,-30 233,-30 233,-10 213,-10"/>
<text text-anchor="start" x="236.7812" y="-15.4" font-family="sans-serif" font-size="14.00" fill="#000000"> &#160;Bootstrap</text>
<polygon fill="#fdb462" stroke="transparent" points="310,-10 310,-30 330,-30 330,-10 310,-10"/>
<text text-anchor="start" x="333.6732" y="-15.4" font-family="sans-serif" font-size="14.00" fill="#000000"> &#160;Providers</text>
<polygon fill="#fb8072" stroke="transparent" points="406,-10 406,-30 426,-30 426,-10 406,-10"/>
<text text-anchor="start" x="429.7258" y="-15.4" font-family="sans-serif" font-size="14.00" fill="#000000"> &#160;Exports</text>
<g id="clust1" class="cluster">
<title>cluster_AppModule</title>
<polygon fill="none" stroke="#000000" stroke-dasharray="1,5" points="101,-70 101,-268 395,-268 395,-70 101,-70"/>
</g>
<g id="clust2" class="cluster">
<title>cluster_AppModule_declarations</title>
<polygon fill="none" stroke="#000000" points="265,-78 265,-130 387,-130 387,-78 265,-78"/>
</g>
<g id="clust4" class="cluster">
<title>cluster_AppModule_imports</title>
<polygon fill="none" stroke="#000000" points="109,-78 109,-130 257,-130 257,-78 109,-78"/>
</g>
<g id="clust6" class="cluster">
<title>cluster_AppModule_bootstrap</title>
<polygon fill="none" stroke="#000000" points="192,-208 192,-260 316,-260 316,-208 192,-208"/>
</g>
<!-- AppComponent -->
<g id="node1" class="node">
<title>AppComponent</title>
<polygon fill="#ffffb3" stroke="#000000" points="378.9399,-122 273.0601,-122 273.0601,-86 378.9399,-86 378.9399,-122"/>
<text text-anchor="middle" x="326" y="-99.8" font-family="Times,serif" font-size="14.00" fill="#000000">AppComponent</text>
</g>
<!-- AppModule -->
<g id="node2" class="node">
<title>AppModule</title>
<polygon fill="#8dd3c7" stroke="#000000" points="295.6571,-187 292.6571,-191 271.6571,-191 268.6571,-187 212.3429,-187 212.3429,-151 295.6571,-151 295.6571,-187"/>
<text text-anchor="middle" x="254" y="-164.8" font-family="Times,serif" font-size="14.00" fill="#000000">AppModule</text>
</g>
<!-- AppComponent&#45;&gt;AppModule -->
<g id="edge1" class="edge">
<title>AppComponent&#45;&gt;AppModule</title>
<path fill="none" stroke="#000000" d="M284.5544,-122.1061C284.5544,-122.1061 284.5544,-140.991 284.5544,-140.991"/>
<polygon fill="#000000" stroke="#000000" points="281.0544,-140.9909 284.5544,-150.991 288.0544,-140.991 281.0544,-140.9909"/>
</g>
<!-- AppComponent  -->
<g id="node4" class="node">
<title>AppComponent </title>
<polygon fill="#80b1d3" stroke="#000000" points="308.439,-252 199.561,-252 199.561,-216 308.439,-216 308.439,-252"/>
<text text-anchor="middle" x="254" y="-229.8" font-family="Times,serif" font-size="14.00" fill="#000000">AppComponent </text>
</g>
<!-- AppModule&#45;&gt;AppComponent  -->
<g id="edge3" class="edge">
<title>AppModule&#45;&gt;AppComponent </title>
<path fill="none" stroke="#000000" stroke-dasharray="1,5" d="M254,-187.1061C254,-187.1061 254,-205.991 254,-205.991"/>
<polygon fill="#000000" stroke="#000000" points="250.5001,-205.9909 254,-215.991 257.5001,-205.991 250.5001,-205.9909"/>
</g>
<!-- ChuckNorrisModule -->
<g id="node3" class="node">
<title>ChuckNorrisModule</title>
<polygon fill="#8dd3c7" stroke="#000000" points="248.8641,-122 245.8641,-126 224.8641,-126 221.8641,-122 117.1359,-122 117.1359,-86 248.8641,-86 248.8641,-122"/>
<text text-anchor="middle" x="183" y="-99.8" font-family="Times,serif" font-size="14.00" fill="#000000">ChuckNorrisModule</text>
</g>
<!-- ChuckNorrisModule&#45;&gt;AppModule -->
<g id="edge2" class="edge">
<title>ChuckNorrisModule&#45;&gt;AppModule</title>
<path fill="none" stroke="#000000" d="M230.5519,-122.1061C230.5519,-122.1061 230.5519,-140.991 230.5519,-140.991"/>
<polygon fill="#000000" stroke="#000000" points="227.052,-140.9909 230.5519,-150.991 234.052,-140.991 227.052,-140.9909"/>
</g>
</g>
</svg>
