<?xml version="1.0" encoding="UTF-8" standalone="no"?>
<!DOCTYPE svg PUBLIC "-//W3C//DTD SVG 1.1//EN"
 "http://www.w3.org/Graphics/SVG/1.1/DTD/svg11.dtd">
<!-- Generated by graphviz version 2.40.1 (20161225.0304)
 -->
<!-- Title: dependencies Pages: 1 -->
<svg width="943pt" height="360pt"
 viewBox="0.00 0.00 943.00 360.00" xmlns="http://www.w3.org/2000/svg" xmlns:xlink="http://www.w3.org/1999/xlink">
<g id="graph0" class="graph" transform="scale(1 1) rotate(0) translate(4 356)">
<title>dependencies</title>
<polygon fill="#ffffff" stroke="transparent" points="-4,4 -4,-356 939,-356 939,4 -4,4"/>
<text text-anchor="start" x="446.5091" y="-42.4" font-family="sans-serif" font-weight="bold" font-size="14.00" fill="#000000">Legend</text>
<polygon fill="#ffffb3" stroke="transparent" points="233.5,-10 233.5,-30 253.5,-30 253.5,-10 233.5,-10"/>
<text text-anchor="start" x="257.129" y="-15.4" font-family="sans-serif" font-size="14.00" fill="#000000"> &#160;Declarations</text>
<polygon fill="#8dd3c7" stroke="transparent" points="346.5,-10 346.5,-30 366.5,-30 366.5,-10 346.5,-10"/>
<text text-anchor="start" x="370.2251" y="-15.4" font-family="sans-serif" font-size="14.00" fill="#000000"> &#160;Module</text>
<polygon fill="#80b1d3" stroke="transparent" points="432.5,-10 432.5,-30 452.5,-30 452.5,-10 432.5,-10"/>
<text text-anchor="start" x="456.2812" y="-15.4" font-family="sans-serif" font-size="14.00" fill="#000000"> &#160;Bootstrap</text>
<polygon fill="#fdb462" stroke="transparent" points="529.5,-10 529.5,-30 549.5,-30 549.5,-10 529.5,-10"/>
<text text-anchor="start" x="553.1732" y="-15.4" font-family="sans-serif" font-size="14.00" fill="#000000"> &#160;Providers</text>
<polygon fill="#fb8072" stroke="transparent" points="625.5,-10 625.5,-30 645.5,-30 645.5,-10 625.5,-10"/>
<text text-anchor="start" x="649.2258" y="-15.4" font-family="sans-serif" font-size="14.00" fill="#000000"> &#160;Exports</text>
<g id="clust1" class="cluster">
<title>cluster_AppModule</title>
<polygon fill="none" stroke="#000000" stroke-dasharray="1,5" points="419,-146 419,-344 713,-344 713,-146 419,-146"/>
</g>
<g id="clust2" class="cluster">
<title>cluster_AppModule_declarations</title>
<polygon fill="none" stroke="#000000" points="583,-154 583,-206 705,-206 705,-154 583,-154"/>
</g>
<g id="clust4" class="cluster">
<title>cluster_AppModule_imports</title>
<polygon fill="none" stroke="#000000" points="427,-154 427,-206 575,-206 575,-154 427,-154"/>
</g>
<g id="clust6" class="cluster">
<title>cluster_AppModule_bootstrap</title>
<polygon fill="none" stroke="#000000" points="510,-284 510,-336 634,-336 634,-284 510,-284"/>
</g>
<g id="clust8" class="cluster">
<title>cluster_ChuckNorrisModule</title>
<polygon fill="none" stroke="#000000" stroke-dasharray="1,5" points="8,-70 8,-138 927,-138 927,-70 8,-70"/>
</g>
<g id="clust9" class="cluster">
<title>cluster_ChuckNorrisModule_declarations</title>
<polygon fill="none" stroke="#000000" points="428,-78 428,-130 919,-130 919,-78 428,-78"/>
</g>
<g id="clust14" class="cluster">
<title>cluster_ChuckNorrisModule_exports</title>
<polygon fill="none" stroke="#000000" points="220,-78 220,-130 420,-130 420,-78 220,-78"/>
</g>
<g id="clust16" class="cluster">
<title>cluster_ChuckNorrisModule_providers</title>
<polygon fill="none" stroke="#000000" points="16,-78 16,-130 212,-130 212,-78 16,-78"/>
</g>
<!-- AppComponent -->
<g id="node1" class="node">
<title>AppComponent</title>
<polygon fill="#ffffb3" stroke="#000000" points="696.9399,-198 591.0601,-198 591.0601,-162 696.9399,-162 696.9399,-198"/>
<text text-anchor="middle" x="644" y="-175.8" font-family="Times,serif" font-size="14.00" fill="#000000">AppComponent</text>
</g>
<!-- AppModule -->
<g id="node2" class="node">
<title>AppModule</title>
<polygon fill="#8dd3c7" stroke="#000000" points="613.6571,-263 610.6571,-267 589.6571,-267 586.6571,-263 530.3429,-263 530.3429,-227 613.6571,-227 613.6571,-263"/>
<text text-anchor="middle" x="572" y="-240.8" font-family="Times,serif" font-size="14.00" fill="#000000">AppModule</text>
</g>
<!-- AppComponent&#45;&gt;AppModule -->
<g id="edge1" class="edge">
<title>AppComponent&#45;&gt;AppModule</title>
<path fill="none" stroke="#000000" d="M602.5544,-198.1061C602.5544,-198.1061 602.5544,-216.991 602.5544,-216.991"/>
<polygon fill="#000000" stroke="#000000" points="599.0544,-216.9909 602.5544,-226.991 606.0544,-216.991 599.0544,-216.9909"/>
</g>
<!-- AppComponent  -->
<g id="node4" class="node">
<title>AppComponent </title>
<polygon fill="#80b1d3" stroke="#000000" points="626.439,-328 517.561,-328 517.561,-292 626.439,-292 626.439,-328"/>
<text text-anchor="middle" x="572" y="-305.8" font-family="Times,serif" font-size="14.00" fill="#000000">AppComponent </text>
</g>
<!-- AppModule&#45;&gt;AppComponent  -->
<g id="edge3" class="edge">
<title>AppModule&#45;&gt;AppComponent </title>
<path fill="none" stroke="#000000" stroke-dasharray="1,5" d="M572,-263.1061C572,-263.1061 572,-281.991 572,-281.991"/>
<polygon fill="#000000" stroke="#000000" points="568.5001,-281.9909 572,-291.991 575.5001,-281.991 568.5001,-281.9909"/>
</g>
<!-- ChuckNorrisModule -->
<g id="node3" class="node">
<title>ChuckNorrisModule</title>
<polygon fill="#8dd3c7" stroke="#000000" points="566.8641,-198 563.8641,-202 542.8641,-202 539.8641,-198 435.1359,-198 435.1359,-162 566.8641,-162 566.8641,-198"/>
<text text-anchor="middle" x="501" y="-175.8" font-family="Times,serif" font-size="14.00" fill="#000000">ChuckNorrisModule</text>
</g>
<!-- ChuckNorrisModule&#45;&gt;AppModule -->
<g id="edge2" class="edge">
<title>ChuckNorrisModule&#45;&gt;AppModule</title>
<path fill="none" stroke="#000000" d="M548.5519,-198.1061C548.5519,-198.1061 548.5519,-216.991 548.5519,-216.991"/>
<polygon fill="#000000" stroke="#000000" points="545.052,-216.9909 548.5519,-226.991 552.052,-216.991 545.052,-216.9909"/>
</g>
<!-- ChuckNorrisPageComponent  -->
<g id="node8" class="node">
<title>ChuckNorrisPageComponent </title>
<polygon fill="#fb8072" stroke="#000000" points="412.3587,-122 227.6413,-122 227.6413,-86 412.3587,-86 412.3587,-122"/>
<text text-anchor="middle" x="320" y="-99.8" font-family="Times,serif" font-size="14.00" fill="#000000">ChuckNorrisPageComponent </text>
</g>
<!-- ChuckNorrisModule&#45;&gt;ChuckNorrisPageComponent  -->
<g id="edge7" class="edge">
<title>ChuckNorrisModule&#45;&gt;ChuckNorrisPageComponent </title>
<path fill="none" stroke="#000000" stroke-dasharray="5,2" d="M434.8865,-174C383.1814,-174 320,-174 320,-174 320,-174 320,-132.0267 320,-132.0267"/>
<polygon fill="#000000" stroke="#000000" points="323.5001,-132.0267 320,-122.0267 316.5001,-132.0268 323.5001,-132.0267"/>
</g>
<!-- ChuckNorrisPageComponent -->
<g id="node5" class="node">
<title>ChuckNorrisPageComponent</title>
<polygon fill="#ffffb3" stroke="#000000" points="911.3585,-122 730.6415,-122 730.6415,-86 911.3585,-86 911.3585,-122"/>
<text text-anchor="middle" x="821" y="-99.8" font-family="Times,serif" font-size="14.00" fill="#000000">ChuckNorrisPageComponent</text>
</g>
<!-- ChuckNorrisPageComponent&#45;&gt;ChuckNorrisModule -->
<g id="edge4" class="edge">
<title>ChuckNorrisPageComponent&#45;&gt;ChuckNorrisModule</title>
<path fill="none" stroke="#000000" d="M821,-122.1097C821,-131.897 821,-142 821,-142 821,-142 522.59,-142 522.59,-142 522.59,-142 522.59,-151.8903 522.59,-151.8903"/>
<polygon fill="#000000" stroke="#000000" points="519.0901,-151.8903 522.59,-161.8903 526.0901,-151.8904 519.0901,-151.8903"/>
</g>
<!-- JokeListComponent -->
<g id="node6" class="node">
<title>JokeListComponent</title>
<polygon fill="#ffffb3" stroke="#000000" points="712.2702,-122 583.7298,-122 583.7298,-86 712.2702,-86 712.2702,-122"/>
<text text-anchor="middle" x="648" y="-99.8" font-family="Times,serif" font-size="14.00" fill="#000000">JokeListComponent</text>
</g>
<!-- JokeListComponent&#45;&gt;ChuckNorrisModule -->
<g id="edge5" class="edge">
<title>JokeListComponent&#45;&gt;ChuckNorrisModule</title>
<path fill="none" stroke="#000000" d="M587.4478,-122.0109C587.4478,-144.4852 587.4478,-180 587.4478,-180 587.4478,-180 576.9608,-180 576.9608,-180"/>
<polygon fill="#000000" stroke="#000000" points="576.9609,-176.5001 566.9608,-180 576.9608,-183.5001 576.9609,-176.5001"/>
</g>
<!-- JokeTileComponent -->
<g id="node7" class="node">
<title>JokeTileComponent</title>
<polygon fill="#ffffb3" stroke="#000000" points="565.5408,-122 436.4592,-122 436.4592,-86 565.5408,-86 565.5408,-122"/>
<text text-anchor="middle" x="501" y="-99.8" font-family="Times,serif" font-size="14.00" fill="#000000">JokeTileComponent</text>
</g>
<!-- JokeTileComponent&#45;&gt;ChuckNorrisModule -->
<g id="edge6" class="edge">
<title>JokeTileComponent&#45;&gt;ChuckNorrisModule</title>
<path fill="none" stroke="#000000" d="M479.41,-122.0109C479.41,-122.0109 479.41,-151.855 479.41,-151.855"/>
<polygon fill="#000000" stroke="#000000" points="475.9101,-151.8549 479.41,-161.855 482.9101,-151.855 475.9101,-151.8549"/>
</g>
<!-- ChuckNorrisService -->
<g id="node9" class="node">
<title>ChuckNorrisService</title>
<ellipse fill="#fdb462" stroke="#000000" cx="114" cy="-104" rx="89.746" ry="18"/>
<text text-anchor="middle" x="114" y="-99.8" font-family="Times,serif" font-size="14.00" fill="#000000">ChuckNorrisService</text>
</g>
<!-- ChuckNorrisService&#45;&gt;ChuckNorrisModule -->
<g id="edge8" class="edge">
<title>ChuckNorrisService&#45;&gt;ChuckNorrisModule</title>
<path fill="none" stroke="#000000" d="M114,-122.1985C114,-146.3563 114,-186 114,-186 114,-186 424.9121,-186 424.9121,-186"/>
<polygon fill="#000000" stroke="#000000" points="424.9121,-189.5001 434.9121,-186 424.912,-182.5001 424.9121,-189.5001"/>
</g>
</g>
</svg>
